<svg xmlns="http://www.w3.org/2000/svg">

    <symbol id="checked" viewBox="0 0 24 24">
        <path d="M19,19H5V5H15V3H5C3.89,3 3,3.89 3,5V19A2,2 0 0,0 5,21H19A2,2 0 0,0 21,19V11H19M7.91,10.08L6.5,11.5L11,16L21,6L19.59,4.58L11,13.17L7.91,10.08Z" />
    </symbol>

    <symbol id="unchecked" viewBox="0 0 24 24">
        <path d="M19,3H5C3.89,3 3,3.89 3,5V19A2,2 0 0,0 5,21H19A2,2 0 0,0 21,19V5C21,3.89 20.1,3 19,3M19,5V19H5V5H19Z" />
    </symbol>

    <symbol id="indeterminate" viewBox="0 0 24 24">
        <g>
            <rect x="8" y="8" width="8" height="8"/>
            <path d="M19,3H5C3.89,3 3,3.89 3,5V19A2,2 0 0,0 5,21H19A2,2 0 0,0 21,19V5C21,3.89 20.1,3 19,3M19,5V19H5V5H19Z" />
        </g>
    </symbol>

</svg>