<svg xmlns="http://www.w3.org/2000/svg" viewBox="0 0 60 60">
    <defs>
        <style>.cls-1{fill:#fff;}</style>
    </defs>
    <title>Logo_1</title>
    <g id="Layer_2" data-name="Layer 2">
        <g id="Layer_1-2" data-name="Layer 1">
            <path class="cls-1"
                  d="M48.92,24.86,48.83,9.09c0-1.86-2-3.31-4.37-3.26S40.09,7.44,40.1,9.28l.06,15.79c0,1.85,2,3.31,4.39,3.24s4.39-1.59,4.38-3.45Z"/>
            <path class="cls-1"
                  d="M33.81,15.85,33.74,2.72C33.74,1.17,32.11,0,30.1,0s-3.64,1.35-3.63,2.87l0,13.15c0,1.54,1.65,2.76,3.65,2.7s3.65-1.32,3.64-2.87Z"/>
            <path class="cls-1"
                  d="M11.4,24.86c0,1.86,1.94,3.4,4.38,3.45s4.37-1.39,4.39-3.24l.06-15.79c0-1.83-1.95-3.39-4.36-3.45s-4.37,1.41-4.37,3.26L11.4,24.86Z"/>
            <path class="cls-1"
                  d="M11.4,35.14l.09,15.78c0,1.86,2,3.31,4.37,3.26s4.38-1.62,4.36-3.45l-.06-15.79c0-1.85-2-3.31-4.39-3.24s-4.39,1.59-4.38,3.45Z"/>
            <path class="cls-1"
                  d="M26.51,44.15l.07,13.13c0,1.54,1.63,2.76,3.64,2.72s3.64-1.35,3.63-2.87L33.8,44c0-1.54-1.65-2.76-3.65-2.7s-3.65,1.32-3.64,2.87Z"/>
            <path class="cls-1"
                  d="M48.92,35.14c0-1.86-1.94-3.4-4.38-3.45s-4.37,1.39-4.39,3.24L40.1,50.72c0,1.83,1.95,3.39,4.36,3.45s4.37-1.41,4.37-3.26l.09-15.78Z"/>
            <path class="cls-1"
                  d="M57.26,41.39h0a2.73,2.73,0,0,1-2.74-2.7v-18A2.73,2.73,0,0,1,57.26,18h0A2.73,2.73,0,0,1,60,20.69v18A2.73,2.73,0,0,1,57.26,41.39Z"/>
            <path class="cls-1"
                  d="M2.74,41.39h0A2.73,2.73,0,0,1,0,38.69v-18A2.73,2.73,0,0,1,2.74,18h0a2.73,2.73,0,0,1,2.74,2.7v18A2.73,2.73,0,0,1,2.74,41.39Z"/>
        </g>
    </g>
</svg>
